<?xml version="1.0" encoding="UTF-8"?>
<!DOCTYPE svg PUBLIC "-//W3C//DTD SVG 1.1//EN" "http://www.w3.org/Graphics/SVG/1.1/DTD/svg11.dtd">
<!-- Creator: CorelDRAW 2020 (64-Bit) -->
<svg xmlns="http://www.w3.org/2000/svg" xml:space="preserve" width="377.985mm" height="29.2972mm" version="1.1" style="shape-rendering:geometricPrecision; text-rendering:geometricPrecision; image-rendering:optimizeQuality; fill-rule:evenodd; clip-rule:evenodd"
viewBox="0 0 37429.63 2901.13"
 xmlns:xlink="http://www.w3.org/1999/xlink"
 xmlns:xodm="http://www.corel.com/coreldraw/odm/2003">
 <defs>
  <style type="text/css">
   <![CDATA[
    .fil1 {fill:#2C637D}
    .fil0 {fill:#AE0514}
   ]]>
  </style>
 </defs>
 <g id="Livello_x0020_1">
  <metadata id="CorelCorpID_0Corel-Layer"/>
  <g id="_1745626157184">
   <path class="fil0" d="M21003.86 452.78c121.38,-58.24 333.63,-13.67 441.66,36.27 88.02,40.69 664.87,380.19 777.68,446.51 162.13,95.31 432.47,224.29 432.47,498.24 0,88.29 -40.9,178.59 -76.91,233.32 -107.5,163.38 -276.28,245.21 -454.21,342.35l-500.64 287.53c-193.08,111.16 -328.39,185.95 -552.54,159.32 -36.99,-4.4 -41.32,-13.47 -75.89,-16.34 156.13,295.07 289.71,461.16 679.17,461.16l989.4 0c403.18,0 482.91,-215.59 645.16,-486.78l428.58 -711.76c94.55,-156.67 103.22,-337.74 4.49,-500.15 -205.52,-338.09 -382.28,-614.78 -583.88,-967.3 -74.2,-129.74 -190.28,-235.14 -393.73,-235.14l-1240.94 0c-149.08,0 -265.8,68.34 -337.5,148.82 -24.63,27.65 -175.12,272.93 -182.35,303.95z"/>
   <path class="fil0" d="M34419.5 1450.57c-23.72,49.44 -60.15,311.15 -83.84,360.55 130.65,0 1747.13,-13.73 1834.32,10.32 177.67,49.02 105.9,227.86 87.93,318.84 -30.17,152.82 -78.69,308.08 -303.99,308.08l-1894.96 0c0,-42.21 9.98,-62.37 17.55,-99.84l326.23 -1526.81c561.78,0 1123.56,0 1685.34,0 131.45,0 410.85,-53.76 410.85,150.92l-80.14 397.79c-16.17,43.13 -42.24,61.05 -86.96,72.36 -81.81,20.69 -1745.01,7.78 -1912.33,7.78zm-796.55 1358.34l2272.28 0c156.11,0 288.32,-56.3 384.18,-118.9 145.45,-94.97 275.39,-266.78 312.55,-442.07 14.39,-67.84 28.08,-133.78 44.69,-206.86 20.37,-89.68 23.78,-125.07 11.95,-220.32 -9.48,-76.43 -44.29,-129.17 -74.21,-185.71 22.9,-34.21 36.29,-34.08 65.08,-60.69 83.4,-77.07 123.66,-119.43 148.1,-245.98 51.29,-265.56 185.49,-574.99 -107.64,-788.28 -125.02,-90.96 -243.93,-78.92 -449.32,-78.92 -704.32,0 -1408.64,0 -2112.96,0l-123.63 580.7c-39.41,199.66 -84.64,387.31 -124.39,588.31l-246.68 1178.73z"/>
   <path class="fil1" d="M3479.68 2314.21c0,105.02 -3.93,152.27 44.51,248.96 75.73,151.16 226.86,245.74 416.65,245.74l2188.43 0c34.54,0 41.78,-104.05 55.2,-171.18 6.73,-33.7 12.25,-63.61 18.6,-90.41 7.32,-30.94 17.7,-65.69 18.44,-98.95l-2180.04 0c-347.64,0 -120.43,-399.21 -100.62,-637.24l2423.19 0c1.76,-78.95 67.08,-266.7 67.08,-360.55l-2414.81 0c47.88,-99.78 49.22,-403.23 145.82,-533.34 24.66,-33.21 89.83,-78.39 135.7,-90.68 74.27,-19.9 2214.89,7.06 2257.38,-6.53 29.01,-9.28 27.28,-44.31 33.19,-75.8l60.73 -283.05 -2188.44 0c-120.06,-0.07 -184.48,11.11 -270.87,47.75 -143.3,60.77 -261.67,162.36 -344.76,284.09 -91.12,133.48 -111.6,294.14 -152.22,476.63 -18.63,83.71 -213.16,975.98 -213.16,1044.57z"/>
   <path class="fil1" d="M16425.77 1450.57l-2138.12 0c28.98,-124.36 57.81,-264.79 81.69,-387.85 14.26,-73.44 32.02,-114.8 75.21,-159.57 32.59,-33.79 100.07,-81.44 161.73,-81.44l1777.56 0c65.23,0 134.16,75.84 134.16,150.92 0,41.94 -12.03,81.13 -20.26,122.29l-48.91 236.16c-6.21,31.04 -20.2,85.13 -23.06,119.48zm-2783.75 1358.34l360.55 0 51.98 -249.87c54.42,-230.32 103.52,-515.61 157.65,-747.92l2138.11 0 -209.61 997.79 335.4 0c31.55,0 26.74,-33.11 31.58,-60.64l329.56 -1565.39c35.08,-169.44 84.66,-311.3 -4.77,-491.13 -64.77,-130.23 -215.14,-230.57 -373.14,-230.57l-1794.34 0c-145.83,0 -330.14,98.91 -434.02,194.84l-97.77 111.85c-125.41,180.65 -153.34,412.86 -199.78,647.08 -22.12,111.6 -49.48,232.24 -72.58,346.65l-146.62 691.86c-13.71,59.46 -25.37,120.62 -36.59,173.03 -7.25,33.82 -11.91,60.76 -18.03,90.97 -6.71,33.14 -16.77,56.71 -17.56,91.45z"/>
   <path class="fil1" d="M427.63 2448.35c14.41,-30.02 34.55,-151.69 45.21,-197.94l306.95 -1428.7 1928.84 -0.35c41.99,-0.22 48.4,-2.16 78.35,13.88 152.61,81.75 58.3,285.11 12.84,514.01l-135.13 636.27c-46.35,196.15 -37.96,442.32 -308.9,462.5 -115.15,8.59 -266.29,0.33 -385.37,0.33 -514.27,0 -1028.53,0 -1542.8,0zm-427.63 360.55l2272.27 0c217.16,0 382.13,-100.89 492.62,-211.71 157.75,-158.25 183.18,-253.03 229.08,-475.23l184.46 -872.02c50.49,-243.86 131.6,-458.35 -69.75,-660.93 -71.72,-72.16 -180.47,-127.85 -283.01,-127.85l-2314.2 0c-35.53,0 -31.43,61.44 -47.02,129.07 -75.79,328.84 -142.45,703.53 -218,1031.32 -45.91,199.16 -79.6,388.01 -124.22,588.49 -13.11,58.9 -122.24,548.39 -122.24,598.86z"/>
   <path class="fil1" d="M6783.28 2808.9l360.55 0c111.55,-478.78 206.4,-1017.88 316.96,-1485.77 19.99,-84.63 34.92,-163.95 52.58,-249.27 10.32,-49.86 49.7,-209.18 49.7,-252.15 81.6,0 43.77,-11.26 144.93,123.38l1054.14 1436.13c49.79,70.9 235.05,335.94 302.08,377.08 103.35,63.43 197.4,50.59 318.34,50.59 151.72,0 276.78,-119.79 312.1,-266.43 11.57,-48.03 23.27,-105.66 33.82,-159.04 82.95,-420.2 187.38,-857.25 271.03,-1280.16 11.22,-56.76 20.7,-102.34 33.77,-159.07l103.91 -483.03 -360.55 0c-3.2,38.47 -17.17,82.39 -24.55,118l-290.55 1369.63c-17.18,86.85 -36.36,165.78 -53.05,248.8l-51.09 250.76c-63.59,0 -65.21,-11.94 -135.82,-115.72l-669.07 -907.27c-70.45,-100.31 -630.97,-868.21 -669.34,-898.61 -109.59,-86.8 -220.29,-65.59 -370.42,-65.59 -92.34,0 -195.18,86.7 -235.02,142.3 -52.86,73.76 -68.24,194.43 -89.94,295.76l-269.75 1273.05c-44.03,212.68 -86.03,427.48 -134.76,636.64z"/>
   <path class="fil0" d="M24575.77 2314.21c0,145.72 24.61,285.55 141.18,378.67 78.52,62.71 181.08,116.03 319.99,116.03l2213.58 0c0,-36.68 9.04,-59.79 14.72,-85.9l52.36 -274.64 -2180.04 0c-286.28,0 -174.79,-277.86 -148.84,-408.76 24.23,-122.2 205.18,-1003.67 232.39,-1058.87 16.02,-32.5 33.85,-66.32 61.25,-89.68 83.3,-70.99 120.76,-69.57 215.73,-69.35l2029.13 0.01c175.14,0.02 132.58,22.59 166.02,-119.06 12.31,-52.12 36.07,-208.34 51.99,-241.49l-2188.44 0c-228.8,-0.29 -401.54,84.1 -543.03,245.13 -48.54,55.26 -19.5,12.12 -70.76,88.55 -100.52,149.86 -108.12,275.49 -152.75,476.1l-110.37 518.49c-17.9,90.51 -37.01,168.68 -54.57,255.67 -13.31,65.95 -49.52,212.41 -49.52,269.1z"/>
   <path class="fil0" d="M30545.74 2356.12c0,263 204.04,452.78 469.54,452.78l1702.11 0c344.8,0 631.05,-264.09 700.81,-582.05l372.44 -1765.68 -360.55 0c0,48.16 -16.1,93.96 -24.55,134.76 -10.06,48.6 -17.68,89.32 -29.05,138.64 -94.7,410.84 -204.16,948.71 -289.57,1362.23 -31.07,150.47 -56.93,351.56 -310.85,351.56l-1660.18 0c-84.6,0 -147.14,-20.94 -179.34,-88.96 -36.67,-77.47 -18.53,-99.74 -1.62,-184.23l121.49 -574.44c15.06,-74.96 33.95,-157.09 49.05,-227.66 65.48,-306.05 124.93,-611.58 194.89,-911.89 -104.54,0 -225.84,-5.9 -328.05,-1.04 -41.38,1.97 -36.15,2.69 -43.89,39.96l-159.83 754.12c-27.07,136.89 -222.86,991 -222.86,1101.92z"/>
   <path class="fil1" d="M11889.61 821.71c-15.54,32.38 -188.98,882.3 -212.91,986.11 -65.62,284.7 -120.37,582.63 -184.71,871.77 -10.22,45.9 -21.62,76.63 -21.62,129.31 405.46,0 351.51,28.42 373.81,-87.35 96.78,-502.31 232.36,-1077.34 338.3,-1590.21 78.77,-381.38 33.5,-309.65 201.84,-309.63l1082.43 0.8c48.92,-5.51 27.72,-24.39 56.22,-145.01 8.78,-37.15 13.95,-63.91 21.93,-103.84 7.39,-36.94 18.86,-78.86 21.67,-112.5l-2859.21 0c0,59.49 -72.22,332.02 -62.89,348.62 16.35,29.1 157.08,11.92 197.04,11.92 349.37,0 698.73,0 1048.1,0z"/>
   <path class="fil1" d="M20517.54 1199.02c0,178.34 -18.4,629.12 26.02,770.53 19.37,61.62 26.96,87.02 62.65,138.58 103.5,149.56 304.5,148.85 468.04,91.99 52.74,-18.34 683.37,-378.15 762.18,-436.85 235.24,-175.18 229.72,-437.63 -1.16,-624.27 -66.03,-53.38 -207.92,-125.12 -293.18,-176.37l-297.95 -171.59c-134.33,-73.39 -202.36,-128.65 -382.83,-128.65 -114.11,0 -233.18,86.01 -274.16,161.85 -57.05,105.56 -69.61,216.75 -69.61,374.78z"/>
   <path class="fil1" d="M17155.24 2330.97c0,129.13 17.75,215.43 94.11,308.36 33.22,40.41 48.5,55.7 90.18,85.89 175.93,127.45 542.1,83.68 813.49,83.68 477.94,0 955.87,0 1433.8,0 27.69,-118.83 47.81,-241.87 75.47,-360.55 -126.8,0 -1918.74,10.06 -1999.62,-4.35 -158.82,-28.28 -147.69,-162.3 -120.07,-279.06l215.56 -1017.01c15.06,-74.96 33.95,-157.08 49.05,-227.66l94.27 -459.12 -360.55 0c-0.78,35.43 -14.14,74.22 -21.64,112.51 -8.9,45.47 -16.24,71.8 -25.16,117.38 -15.94,81.47 -32.31,154.05 -50.27,234.81l-271.94 1279.24c-9.34,39.47 -16.69,76.58 -16.69,125.86z"/>
   <path class="fil0" d="M27703.3 2339.36c0,157.84 38.74,243.13 140.41,345.91 77.13,77.96 186.13,123.63 337.52,123.63l1936.88 0c31.82,0 28.16,-42.39 34.28,-74.72l57.95 -285.82c-132.98,0 -1919.64,10.33 -2005.15,-7.19 -203.01,-41.59 -118.41,-250.82 -90.44,-386.28 15.31,-74.11 34.11,-152.71 49.01,-227.7l264.17 -1245.09c8.99,-40.42 21.62,-76.6 21.62,-120.93l-360.55 0c-0.97,43.72 -84.52,409.2 -95.76,466.03l-198.49 933.45c-17.51,87.11 -91.45,398.97 -91.45,478.71z"/>
   <path class="fil0" d="M37018.78 662.4c0,-164.47 189.06,-229.19 291.74,-132.43 104.34,98.33 52.95,316.89 -115.66,316.89 -87.81,0 -176.07,-69.39 -176.07,-184.46zm-67.08 0c0,310.01 477.93,315.42 477.93,16.76 0,-87.75 -7.26,-125.32 -77.38,-190.93 -142.5,-133.36 -400.55,-33.51 -400.55,174.16z"/>
   <path class="fil0" d="M37203.25 645.63l-41.93 0 0 -58.69 25.16 0c37.25,0 43.23,11.57 50.3,41.93 -15.13,10.13 -14.74,16.76 -33.54,16.76zm-100.62 -75.46l0 218 58.69 0 0 -92.23c86.32,0 54.99,32.08 83.85,92.23l58.69 0c-6.49,-77.89 -18.88,-82.98 -41.93,-117.38 17.15,-23.41 33.54,-16.74 33.54,-58.7 0,-81.9 -90.09,-67.07 -167.7,-67.07 -19.32,0 -25.15,5.83 -25.15,25.15z"/>
  </g>
 </g>
</svg>
