<?xml version="1.0" encoding="UTF-8"?>
<!DOCTYPE svg PUBLIC "-//W3C//DTD SVG 1.1//EN" "http://www.w3.org/Graphics/SVG/1.1/DTD/svg11.dtd">
<!-- Creator: CorelDRAW 2020 (64-Bit) -->
<svg xmlns="http://www.w3.org/2000/svg" xml:space="preserve" width="33.3134mm" height="29.2972mm" version="1.1" style="shape-rendering:geometricPrecision; text-rendering:geometricPrecision; image-rendering:optimizeQuality; fill-rule:evenodd; clip-rule:evenodd"
viewBox="0 0 3403.32 2993.02"
 xmlns:xlink="http://www.w3.org/1999/xlink"
 xmlns:xodm="http://www.corel.com/coreldraw/odm/2003">
 <defs>
  <style type="text/css">
   <![CDATA[
    .fil1 {fill:#2C637D}
    .fil0 {fill:#AE0514}
   ]]>
  </style>
 </defs>
 <g id="Livello_x0020_1">
  <metadata id="CorelCorpID_0Corel-Layer"/>
  <path class="fil0" d="M505.62 467.12c125.23,-60.08 344.2,-14.1 455.65,37.42 90.81,41.98 685.93,392.24 802.31,460.65 167.27,98.33 446.17,231.39 446.17,514.02 0,91.09 -42.19,184.25 -79.35,240.71 -110.91,168.56 -285.03,252.98 -468.6,353.19l-516.49 296.63c-199.19,114.69 -338.8,191.84 -570.04,164.37 -38.16,-4.54 -42.63,-13.89 -78.3,-16.86 161.08,304.42 298.88,475.76 700.68,475.76l1020.74 0c415.95,0 498.21,-222.41 665.6,-502.2l442.15 -734.3c97.54,-161.63 106.49,-348.44 4.63,-515.99 -212.03,-348.8 -394.39,-634.25 -602.37,-997.94 -76.55,-133.85 -196.3,-242.59 -406.2,-242.59l-1280.25 0c-153.8,0 -274.22,70.5 -348.19,153.54 -25.41,28.52 -180.67,281.58 -188.13,313.58z"/>
  <path class="fil1" d="M3.9 1237c0,183.99 -18.98,649.05 26.85,794.93 19.98,63.57 27.82,89.78 64.64,142.97 106.78,154.29 314.14,153.57 482.86,94.91 54.41,-18.92 705.01,-390.13 786.32,-450.68 242.69,-180.73 236.99,-451.49 -1.2,-644.04 -68.12,-55.07 -214.51,-129.08 -302.47,-181.96l-307.39 -177.02c-138.58,-75.71 -208.77,-132.73 -394.95,-132.73 -117.72,0 -240.57,88.74 -282.84,166.97 -58.85,108.9 -71.82,223.62 -71.82,386.65z"/>
 </g>
</svg>
